<svg id="Group_22" data-name="Group 22" xmlns="http://www.w3.org/2000/svg" xmlns:xlink="http://www.w3.org/1999/xlink" width="180.007" height="102.196" viewBox="0 0 180.007 102.196">
  <defs>
    <clipPath id="clip-path">
      <rect id="Rectangle_23" data-name="Rectangle 23" width="180.007" height="102.196" fill="none"/>
    </clipPath>
  </defs>
  <g id="Group_21" data-name="Group 21" clip-path="url(#clip-path)">
    <path id="Path_44" data-name="Path 44" d="M154.4,50.857c2.658,0,5.316-.011,7.974.009.525,0,.765-.157.707-.695a1.519,1.519,0,0,1,.662-1.713c.675-.371,1.349-.75,2.05-1.065a.693.693,0,0,1,.648.144,1.168,1.168,0,0,1,.1.923c-.355.536-.866.967-1.272,1.475a.786.786,0,0,0-.166.647c.068.15.384.213.6.271,3.218.858,6.5.4,9.761.5,1.735.05,2.43.67,2.566,2.4a3.956,3.956,0,0,1,0,.746c-.352,3.028.65,5.98.5,8.995.9,2.2.255,4.515.529,6.754a21.243,21.243,0,0,0,.835,4.619c.073.207.162.565.064.652-.76.677-.382,1.546-.407,2.321a5.976,5.976,0,0,1-.474,1.8,1.434,1.434,0,0,1-1.639,1.08q-4.86-.03-9.719.009c-.4,0-.871-.273-1.2.449-.409.9-.552.836-.952-.043-.247-.544-1.5-.621-2.065-.08a3.3,3.3,0,0,0-.429.81c-.279.5-.306.242-.517-.1a1.964,1.964,0,0,0-2.795-.9,1.706,1.706,0,0,1-1.933-.09c-.737-.438-1.368.067-1.738,1.049a1.772,1.772,0,0,1-.257.366c-.079-.134-.149-.273-.238-.4-.834-1.186-.862-1.251-1.979-.8a1.02,1.02,0,0,1-1.059-.028,1.534,1.534,0,0,0-1.3-.079c-.495.336-.8.474-1.246,0a.757.757,0,0,0-.661-.155,2.9,2.9,0,0,1-2.36.042,6.814,6.814,0,0,0-2.467-.06c-.914,0-1.831-.05-2.74.015-.779.056-1.571-.245-2.362.351-.3.23-1.12-.269-1.714-.353s-1.134-.121-1.1.823c.015.381-.488.77-.709,1.18-.06.112.014.435.081.452a9.449,9.449,0,0,0,2.28.485,13.7,13.7,0,0,1,3.24.277c1.162.3,2.291-.035,3.362.271,3.393.969,6.851.434,10.266.407,2.113-.016,3.816.911,5.582,1.635a6.991,6.991,0,0,1,3.166,3.558,7.287,7.287,0,0,1,.467,5.33c-.329,1.153-.518,2.3-1.58,3.1-.291.22-.261.863-.379,1.312-1.223-.55-1.513,1.125-2.554,1.072a1.076,1.076,0,0,0-.827.349c-.451.668-1.08.637-1.75.631-1.91-.015-3.821,0-5.732,0a9.913,9.913,0,0,0-3.211.077c-.9.33-1.863-.462-2.7.371-.173.173-.987-.452-1.487-.419-2.193.143-4.423-.445-6.584.323-.465.165-.785-.781-1.4-.135-.42.441-1.27-.838-1.708.259-.3-.788-1.023.22-1.439-.347-.128-.175-.62-.172-.921-.115a10.642,10.642,0,0,1-3.584.033,29.075,29.075,0,0,0-4.229-.047c-1.329,0-2.659-.019-3.987.008-.626.013-1.346-.245-1.8.47a1.517,1.517,0,0,0-1.773-.451,13.524,13.524,0,0,1-4.581.011,48.914,48.914,0,0,0-4.98-.038,10.4,10.4,0,0,0-3.216.07c-1.049.36-1.9-.207-2.854-.1-1.066.121-2.159-.017-3.236.043-.777.043-1.582-.259-2.338.415-.286.256-1.152.112-1.608-.128a1.47,1.47,0,0,0-1.737.036c-1.111.712-2.144-.239-3.16-.493-.588-.147-.932-.468-1.421.093a.68.68,0,0,1-.629-.082c-.213-.426-.171-1.257-.906-.369a14.6,14.6,0,0,0-1.065-1.047c-.424-.343-.952-.569-1.34-.944-.318-.307-.448-.8-.746-1.136-.824-.93-.84-2.145-1.224-3.229-.3-.836-.272-1.14.065-2.755.113-.544.045-1.134.2-1.662.688-2.364,3.453-4.491,5.984-5.175,3.009-.813,6.022-.347,9.027-.4,1.236-.022,2.341-.454,3.529-.568s2.474.481,3.53-.482c.522-.476.648.723,1.436.2.841-.56,2.1-.493,3.182-.692.532-.1,1.067-.178,1.6-.267a7.2,7.2,0,0,0-1.507-1.685,6.862,6.862,0,0,0-3.552-1.046c-2.408.04-4.818.019-7.227.009-2.018-.008-2.151-.089-2.13-2.014a2.251,2.251,0,0,0-.925-2.115,1.572,1.572,0,0,1-.608-1.495c.03-2.237-.315-4.538.095-6.7.511-2.69.269-5.348.434-8.015.047-.768.346-1.516.471-2.283.112-.695-.265-1.5.508-2.031-.089-1.675.424-3.472-.594-4.965a2.779,2.779,0,0,1-.391-1.834c.036-2.473-1.2-4.5-2.443-6.443a6.641,6.641,0,0,0-2.665-1.882C86.049,38.6,82.4,36.78,78.692,35.1a19.738,19.738,0,0,0-4.257-1.14c-1.453-.29-2.9-.559-4.341-.929-1.195-.306-2.519-.174-3.764-.563-1.331-.416-2.711-.676-4.066-1.015s-2.754-.449-4.107-.9a27.942,27.942,0,0,0-3.014-.523,30.122,30.122,0,0,1-5.9-1.439,19.747,19.747,0,0,0-3.01-.512,36.482,36.482,0,0,0-4.373-.9c-1.493-.187-2.949-.564-4.441-.77-1.356-.187-2.688-.716-4.063-1.016-.762-.165-1.519-.324-2.3-.418s-1.524-.439-2.288-.452c-1.132-.02-2.093-.815-3.287-.549a6.5,6.5,0,0,1-2.971-.219c-.144-.047-.285-.266-.388-.242-1.315.315-2.279-.483-3.329-1.01-.305-.154-.762-1.039-.781.151-.021,1.409-.005,2.819-.005,4.228a37.511,37.511,0,0,0,.047,5.712c.789,5.067-.06,10.191.552,15.207.58,4.765.132,9.495.412,14.229.079,1.346.39,2.678.466,4.023.084,1.488.019,2.984.019,4.476,0,1.409-.048,2.82.023,4.226a17.017,17.017,0,0,0,.464,1.786,6.6,6.6,0,0,1-.612,3.965,3.2,3.2,0,0,0,.111,3.131,25.749,25.749,0,0,0,4.715,7.01c.724.734,1.3,1.612,1.952,2.418a1.188,1.188,0,0,0,1.255.578,2.263,2.263,0,0,1,2.334,1c.718.8,1.517,1.534,2.28,2.3a4.851,4.851,0,0,1,.7.708c1.176,1.8,1.189,1.769,3.38,2.473a.97.97,0,0,1,.38.279c.15.161.272.348.407.523a1.5,1.5,0,0,1-.422.18c-2.09.175-4.179.4-6.273.486-2.074.082-4.153.033-6.23.008-.542-.007-1.138.209-1.617-.337-.107-.122-.547.016-.823.081a4.023,4.023,0,0,0-.636.266c-.942.4-1.808-.6-2.848-.04-1,.537-1.98-.477-3.011-.444s-1.716-.69-2.568-1.034c-.924-.373-1.749-.983-2.649-1.424a5.294,5.294,0,0,1-2.781-3.043,7.77,7.77,0,0,1,1.135-7.83A14.856,14.856,0,0,0,9.52,86.1c.531-.821.473-.825-.406-1.6A20.276,20.276,0,0,1,7.36,82.738c-.189-.213-.386-.647-.292-.843.7-1.472-.361-2.423-1.047-3.4s-1.2-2.031-1.807-3.012a7.619,7.619,0,0,0-2.336-2.73C.736,72.021.833,71.73,1.657,70.382a2.728,2.728,0,0,0,.381-1.325c.034-2.818.058-5.637-.006-8.454-.02-.929-.442-1.853-.44-2.779A5.15,5.15,0,0,0,.7,55.19a2.349,2.349,0,0,1-.134-1.181C.926,45.115-.1,36.25.009,27.357a48.935,48.935,0,0,1,1.079-8.286c.134-.728.752-1.357.946-2.085.718-2.7,1.25-5.444,2.063-8.109a14.9,14.9,0,0,0,.466-3.288A8.693,8.693,0,0,1,6.736.8a2.127,2.127,0,0,1,2.81-.45c2.12,1.41,4.658,1.606,7.04,2.24,3.668.976,7.38,1.776,11.05,2.763C30.03,6,32.5,6.862,35.12,6.6S38.331,6.544,40.594,8a10.934,10.934,0,0,0,3.089.942,21.663,21.663,0,0,0,3.242.611,15.477,15.477,0,0,1,3.834.983,22.508,22.508,0,0,0,4.323.952c1.325.24,2.461,1,3.81,1.075a21.458,21.458,0,0,1,3.842.912c1.284.309,2.572.558,3.842.973a3.174,3.174,0,0,0,2.35-.161,7.848,7.848,0,0,1,3.931-.762c1.487.113,2.989.014,4.484.028a8.491,8.491,0,0,1,5.99,3.085,9.872,9.872,0,0,0,1.266.936c1.353,1.158,2.675,2.353,4.035,3.5a6.749,6.749,0,0,0,1.2.711c2.31,1.238,4.626,2.463,6.932,3.709a5.112,5.112,0,0,1,.958.693,65.642,65.642,0,0,0,5.293,4.7c2.075,1.487,3.125,3.579,4.236,5.7.321.614.659,1.22,1,1.827,1.383,2.492,1.384,2.47,4,2.512.817.013,1.631.256,2.446.25.958-.006,1.914-.2,2.874-.253.911-.047,1.827-.01,2.74-.01h5.732c.914,0,1.828-.009,2.741,0a6.727,6.727,0,0,1,3.052.458c.99.484,1.147.448.444,1.133a2.378,2.378,0,0,0-.473,2.7,15.539,15.539,0,0,1,.908,5.357,4.673,4.673,0,0,1-.731,2.69,1.984,1.984,0,0,0-.046,2.6c.329.432.528,1.222.9,1.3A4.108,4.108,0,0,0,134.8,56.8c.192-.064.226-.517.4-.741,1-1.291.793-2.968,1.432-4.385a6.618,6.618,0,0,0,.578-2.515,4.41,4.41,0,0,1,2.046-3.6,32.472,32.472,0,0,0,4.719-4.235.611.611,0,0,1,1.04.232c.1.553.02,1.142.133,1.692.247,1.2.267,2.5,2.058,2.691,1.01.108,1.241,1.283.541,2.045-.317.347-.778.875-1.115.834-1.1-.133-1.008.478-1.014,1.2-.006.6.116.872.809.862,2.658-.04,5.317-.016,7.975-.016M63.271,18.024a.776.776,0,0,0,.219,0c.293-.077.583-.168.874-.253-.283-.117-.652-.159-.835-.364-.734-.822-1.726-.111-2.54-.5-2.759-1.321-5.822-1.552-8.727-2.356-2.31-.64-4.6-1.381-6.953-1.814-2.082-.384-4.054-1.3-6.243-1.192a6.846,6.846,0,0,1-5.4-1.989,2.946,2.946,0,0,0-1.037-.479c-1.615-.621-3.385-.668-5-1.172-2.964-.926-6-1.521-8.977-2.354-2.1-.589-4.244-.958-6.358-1.464-.3-.072-.427-.736-.909-.136-.367.456-.465.716-.068,1.235a9.085,9.085,0,0,1,.9,1.852c.786,1.755,2.037,3.251,2.674,5.106.5,1.45,1.161,1.88,2.553,1.342,1.622-.628,3.2-.3,4.8-.426a10.535,10.535,0,0,1,4.384.815,22.867,22.867,0,0,0,9.019,1.688,7.169,7.169,0,0,1,3.309.4c.922.378,2.13.012,3.2.1,1.1.084,2.182.4,3.28.463,3.5.209,7,.348,10.495.513.166.007.386-.069.489.011,1.01.784,2.186.37,3.286.494,1.179.133,2.352.322,3.556.491M4.049,63.081c.057,1.967-.2,4.155.479,6.295.241.756.56,1.109,1.262.874.361-.12.681-.422,1.042-.472,1.5-.207,3.019-.3,4.513-.54a3.121,3.121,0,0,0,1.632-.773,1.1,1.1,0,0,0-.278-1.328c-.223-.211-.129-.756-.174-1.15a6.323,6.323,0,0,0-1.071-3.036,2.243,2.243,0,0,1-.406-1.063c-.063-.739.046-1.495-.038-2.23a14.758,14.758,0,0,0-.482-2.029,7.041,7.041,0,0,1-.466-1.779c.029-1.3-.535-2.467-.633-3.754-.094-1.222-.959-2.386-1.488-3.573-.125-.279-.433-.751-.377-.8,1.18-.977.1-1.956-.075-2.834-.409-2.029-.542-4.167-1.713-5.981a1.151,1.151,0,0,1,.046-1.533c.137-.165.282-.517.2-.635-.993-1.473-.645-3.33-1.425-4.881-.2-.4-.216-.924-.632-1.216a.8.8,0,0,0-.651-.155c-.151.073-.31.525-.244.591.747.752.458,1.685.468,2.544.03,2.73.045,5.46,0,8.19-.043,2.678.838,5.289.528,7.986-.041.355.263.739.274,1.113.044,1.606.039,3.213.052,4.82-.965.873-.57,1.849-.4,2.928a29.461,29.461,0,0,1,.052,4.418m7.043,16.007a2.063,2.063,0,0,0,.533-.229,22.916,22.916,0,0,0,2.211-1.223c1.345-.9,1.446-1.437.68-3a12.478,12.478,0,0,1-.742-1.42,3.108,3.108,0,0,1-.123-1.329c.088-.735-.226-1.321-.746-1.114a24.442,24.442,0,0,1-5.282.986,7.351,7.351,0,0,0-1.761.517.813.813,0,0,0-.234.759,33.97,33.97,0,0,1,2.994,4.936,1.923,1.923,0,0,0,2.47,1.115M122.2,52.536V50.3c0-.993-.019-1.986.02-2.977a.61.61,0,0,1,.424-.421.642.642,0,0,1,.532.312,7.683,7.683,0,0,1,.481,2.514c-.281,2.705.7,5.3.551,7.986-.011.195.16.559.278.573a4.106,4.106,0,0,0,1.468-.039c.141-.035.091-.6.247-.851a6.667,6.667,0,0,0,.52-2.774c.205-1.341-.746-2.491-.51-3.764.263-1.421-.412-2.673-.589-4.007a5,5,0,0,0-1.377-2.133c-.384-.457-2.466-.48-2.993-.123-.2.137-.522.362-.506.517.171,1.666-.491,3.371.412,5.025a4.379,4.379,0,0,1,.579,2.252c-.057,1.622.1,3.252.163,4.879.652-1.628.094-3.329.3-4.737m15.312,4.477a5.109,5.109,0,0,0,1.393-.727,14.126,14.126,0,0,0,2.528-2.888c.429-.761,1.422-1.218,2.191-1.772.855-.618.483-1.5.458-2.261-.008-.267-.613-.536-.972-.764-.321-.205-.715-.306-1.009-.538a1.182,1.182,0,0,1,.147-2.013c.246-.152.618-.087.913-.181a.95.95,0,0,0,.342-.34,6.855,6.855,0,0,0-1.058-1.029c-.069-.05-.454.318-.674.514-.246.219-.449.49-.707.691-1.386,1.081-1.632,1.8-2.461,3.383-1.145,2.183-.916,4.682-1.921,6.871-.214.466-.039,1.012.83,1.054m-31.119,3.793a2.15,2.15,0,0,0,.5-.007c.281-.067.553-.176.829-.267-.176-.176-.354-.348-.526-.526-.543-.563-.83-.853.283-1.263,1.037-.382,1.057-1.348.277-2.144-1.794-1.83-3.618-3.63-5.445-5.427-.1-.1-.342-.067-.517-.1.492.83-.92,1.31-.257,2.409.855,1.415,1.354,3.068,2.218,4.52a5.053,5.053,0,0,1,.5,1.033c.57,1.771.561,1.774,2.148,1.767m9.825-12.532a19.739,19.739,0,0,1,.013-1.977c.08-.8-.264-.989-.982-.923-.573.053-1.155.005-1.734.012-.5.007-.969-.146-.4.692.9,1.326,1.542,2.816,2.315,4.226a2.746,2.746,0,0,0,.517.529,1.807,1.807,0,0,0,.261-.582c.033-.658.013-1.318.013-1.977M83.292,18.248c-.058-.058-.12-.113-.174-.174a6.033,6.033,0,0,0-3.6-1.994,24.025,24.025,0,0,0-4.183-.029.621.621,0,0,0-.467.376c-.029.183.126.551.254.577.757.152,1.525.918,2.232.486,1.654-1.008,2.943-.049,4.333.532.42.176.843.35,1.277.483.075.023.216-.166.326-.257m26.163,79.868c.575,0,1.152.028,1.724-.015.191-.014.485-.176.524-.324a.791.791,0,0,0-.212-.623,1.4,1.4,0,0,0-.76-.506c-.982-.06-1.97-.018-2.955-.026-.655-.005-.571.481-.507.845.041.236.277.592.466.62a11.87,11.87,0,0,0,1.72.029m26.316,0c.657,0,1.315.013,1.971-.01.135-.005.37-.137.376-.224a1.015,1.015,0,0,0-.132-.654c-.189-.242-.469-.561-.726-.577a27.33,27.33,0,0,0-3.2.006c-.144.008-.362.46-.364.708s.194.691.356.717a11.056,11.056,0,0,0,1.719.034m-8.334,0c.572,0,1.147.029,1.716-.016a.656.656,0,0,0,.5-.345,1.226,1.226,0,0,0-1.476-1.12,11.641,11.641,0,0,0-1.512.491c-.5.189-1.559-.567-1.419.629.088.75.956.237,1.459.352a3.326,3.326,0,0,0,.734.009m-9.311,0c.129-.007.773-.03,1.411-.1.071-.008.16-.261.16-.4s-.1-.4-.159-.4a8.418,8.418,0,0,1-2.465-.564,1.122,1.122,0,0,0-1.337,1c.076.79.738.362,1.143.451a8.381,8.381,0,0,0,1.247.009m-22.278-29c-.072-1.161-.153-2.456-.235-3.752-.72,1.25-.235,2.6-.305,3.905s.084,2.592.139,3.889c.732-1.248.109-2.612.4-4.042m14.694-8.8.677-.243c-.166-.175-.328-.355-.5-.526a11.926,11.926,0,0,0-1.254-1.2c-.1-.072-.662.2-.695.371-.195,1.012.355,1.542,1.77,1.6m-2.289,6.929a2.53,2.53,0,0,0-.853.154c-.248.134-.593.486-.552.664a1,1,0,0,0,.658.663c.378.047.962-.376,1.152-.222.588.476.616-.208.9-.309a3.653,3.653,0,0,0-.533-.85c-.14-.13-.459-.068-.775-.1M94.8,88.167a6.439,6.439,0,0,0-.984.015c-.162.025-.3.2-.45.31.116.115.211.281.35.335a2.6,2.6,0,0,0,1.083.308c.5-.049,1.363.434,1.433-.357.1-1.178-.952-.384-1.432-.611M23.948,15.039l.967-.322c-.442-.11-.885-.217-1.327-.33a8.787,8.787,0,0,0-1.323-.321c-.22-.02-.462.192-.694.3.232.225.43.563.7.646a7.4,7.4,0,0,0,1.672.028m77.49,83.091c.747-.044,1.422.209,1.339-.775-.04-.471-.114-.656-.645-.759-1.021-.2-.731.843-1.214,1.119l.52.415m48.07-1.008c-.09.037-.8.167-.83.381-.128,1.041.743.5,1.2.6a2.725,2.725,0,0,0,.978,0,.436.436,0,0,0,.247-.355c-.026-.214-.115-.553-.253-.594a5.755,5.755,0,0,0-1.338-.028m-5.791.936.42-.324-1.027-1.11c-.156.216-.4.414-.451.653-.12.555.034.967,1.058.781M96.378,59.167,95.954,57.9a6.534,6.534,0,0,0-.152,1.4c.047.479-.368,1.085.3,1.436.081-.463.163-.926.274-1.564M79.953,19.019a4.285,4.285,0,0,0,.735-.01,3.441,3.441,0,0,0,.634-.239,2.382,2.382,0,0,0-.634-.238,11.267,11.267,0,0,0-1.47,0c-.134.008-.259.155-.388.238.129.083.25.215.389.238a4.6,4.6,0,0,0,.734.011M106.83,63.255l-.567.273c.369.253.732.516,1.12.737a1.363,1.363,0,0,0,.345-.477.429.429,0,0,0-.155-.393,3.225,3.225,0,0,0-.743-.14M96.323,63l-.7-.614c-.113.213-.314.425-.314.637a2.043,2.043,0,0,0,.283.71L96.323,63"/>
  </g>
</svg>
